<mxfile host="app.diagrams.net" agent="Mozilla/5.0 (Windows NT 10.0; Win64; x64) AppleWebKit/537.36 (KHTML, like Gecko) Chrome/134.0.0.0 Safari/537.36" version="26.2.0">
  <diagram name="Page-1" id="ms8zfXULlbWL-4lpEg3L">
    <mxGraphModel dx="1044" dy="566" grid="0" gridSize="10" guides="1" tooltips="1" connect="1" arrows="1" fold="1" page="1" pageScale="1" pageWidth="850" pageHeight="1100" background="none" math="0" shadow="0">
      <root>
        <object label="" id="0">
          <mxCell />
        </object>
        <mxCell id="1" parent="0" />
        <mxCell id="oqv-NDXjtBtArK-2c-zb-1" value="" style="rounded=0;whiteSpace=wrap;html=1;direction=south;" vertex="1" parent="1">
          <mxGeometry x="60" y="170" width="190" height="150" as="geometry" />
        </mxCell>
        <mxCell id="oqv-NDXjtBtArK-2c-zb-2" value="" style="whiteSpace=wrap;html=1;aspect=fixed;" vertex="1" parent="1">
          <mxGeometry x="340" y="150" width="250" height="250" as="geometry" />
        </mxCell>
        <mxCell id="oqv-NDXjtBtArK-2c-zb-4" value="" style="rounded=0;whiteSpace=wrap;html=1;" vertex="1" parent="1">
          <mxGeometry x="755" y="80" width="540" height="450" as="geometry" />
        </mxCell>
        <mxCell id="oqv-NDXjtBtArK-2c-zb-6" value="" style="rounded=0;whiteSpace=wrap;html=1;direction=south;" vertex="1" parent="1">
          <mxGeometry x="985" y="187.5" width="146" height="195" as="geometry" />
        </mxCell>
        <mxCell id="oqv-NDXjtBtArK-2c-zb-7" value="" style="shape=image;html=1;verticalAlign=top;verticalLabelPosition=bottom;labelBackgroundColor=#ffffff;imageAspect=0;aspect=fixed;image=https://cdn4.iconfinder.com/data/icons/miu-black-social-2/60/github-128.png" vertex="1" parent="1">
          <mxGeometry x="70" y="220" width="40" height="40" as="geometry" />
        </mxCell>
        <mxCell id="oqv-NDXjtBtArK-2c-zb-11" value="CI/CD PIPELINE" style="rounded=1;whiteSpace=wrap;html=1;" vertex="1" parent="1">
          <mxGeometry x="70" y="180" width="120" height="20" as="geometry" />
        </mxCell>
        <mxCell id="oqv-NDXjtBtArK-2c-zb-18" value="" style="sketch=0;points=[[0,0,0],[0.25,0,0],[0.5,0,0],[0.75,0,0],[1,0,0],[0,1,0],[0.25,1,0],[0.5,1,0],[0.75,1,0],[1,1,0],[0,0.25,0],[0,0.5,0],[0,0.75,0],[1,0.25,0],[1,0.5,0],[1,0.75,0]];outlineConnect=0;fontColor=#232F3E;fillColor=#ED7100;strokeColor=#ffffff;dashed=0;verticalLabelPosition=bottom;verticalAlign=top;align=center;html=1;fontSize=12;fontStyle=0;aspect=fixed;shape=mxgraph.aws4.resourceIcon;resIcon=mxgraph.aws4.elastic_beanstalk;" vertex="1" parent="1">
          <mxGeometry x="190" y="224" width="32" height="32" as="geometry" />
        </mxCell>
        <mxCell id="oqv-NDXjtBtArK-2c-zb-39" style="edgeStyle=orthogonalEdgeStyle;rounded=0;orthogonalLoop=1;jettySize=auto;html=1;" edge="1" parent="1" source="oqv-NDXjtBtArK-2c-zb-19" target="oqv-NDXjtBtArK-2c-zb-23">
          <mxGeometry relative="1" as="geometry" />
        </mxCell>
        <mxCell id="oqv-NDXjtBtArK-2c-zb-19" value="" style="sketch=0;pointerEvents=1;shadow=0;dashed=0;html=1;strokeColor=none;fillColor=#505050;labelPosition=center;verticalLabelPosition=bottom;verticalAlign=top;outlineConnect=0;align=center;shape=mxgraph.office.concepts.settings_office_365;" vertex="1" parent="1">
          <mxGeometry x="380" y="160" width="40" height="40" as="geometry" />
        </mxCell>
        <mxCell id="oqv-NDXjtBtArK-2c-zb-62" style="edgeStyle=orthogonalEdgeStyle;rounded=0;orthogonalLoop=1;jettySize=auto;html=1;entryX=0.5;entryY=1;entryDx=0;entryDy=0;" edge="1" parent="1" source="oqv-NDXjtBtArK-2c-zb-20" target="oqv-NDXjtBtArK-2c-zb-6">
          <mxGeometry relative="1" as="geometry" />
        </mxCell>
        <mxCell id="oqv-NDXjtBtArK-2c-zb-20" value="" style="sketch=0;pointerEvents=1;shadow=0;dashed=0;html=1;strokeColor=none;fillColor=#505050;labelPosition=center;verticalLabelPosition=bottom;verticalAlign=top;outlineConnect=0;align=center;shape=mxgraph.office.users.administrator;" vertex="1" parent="1">
          <mxGeometry x="380" y="235" width="50" height="50" as="geometry" />
        </mxCell>
        <mxCell id="oqv-NDXjtBtArK-2c-zb-22" value="" style="verticalLabelPosition=bottom;shadow=0;dashed=0;align=center;html=1;verticalAlign=top;strokeWidth=1;shape=mxgraph.mockup.misc.shoppingCart;strokeColor=#999999;" vertex="1" parent="1">
          <mxGeometry x="380" y="320" width="40" height="40" as="geometry" />
        </mxCell>
        <mxCell id="oqv-NDXjtBtArK-2c-zb-53" style="edgeStyle=orthogonalEdgeStyle;rounded=0;orthogonalLoop=1;jettySize=auto;html=1;" edge="1" parent="1" source="oqv-NDXjtBtArK-2c-zb-23" target="oqv-NDXjtBtArK-2c-zb-27">
          <mxGeometry relative="1" as="geometry">
            <Array as="points">
              <mxPoint x="675" y="180" />
              <mxPoint x="675" y="213" />
            </Array>
          </mxGeometry>
        </mxCell>
        <mxCell id="oqv-NDXjtBtArK-2c-zb-59" style="edgeStyle=orthogonalEdgeStyle;rounded=0;orthogonalLoop=1;jettySize=auto;html=1;entryX=0;entryY=0.75;entryDx=0;entryDy=0;" edge="1" parent="1" source="oqv-NDXjtBtArK-2c-zb-23" target="oqv-NDXjtBtArK-2c-zb-6">
          <mxGeometry relative="1" as="geometry">
            <Array as="points">
              <mxPoint x="778" y="160" />
              <mxPoint x="778" y="168" />
              <mxPoint x="1022" y="168" />
            </Array>
          </mxGeometry>
        </mxCell>
        <mxCell id="oqv-NDXjtBtArK-2c-zb-23" value="" style="sketch=0;pointerEvents=1;shadow=0;dashed=0;html=1;strokeColor=none;fillColor=#505050;labelPosition=center;verticalLabelPosition=bottom;verticalAlign=top;outlineConnect=0;align=center;shape=mxgraph.office.concepts.book_journal;" vertex="1" parent="1">
          <mxGeometry x="540" y="160" width="30" height="40" as="geometry" />
        </mxCell>
        <mxCell id="oqv-NDXjtBtArK-2c-zb-40" style="edgeStyle=orthogonalEdgeStyle;rounded=0;orthogonalLoop=1;jettySize=auto;html=1;" edge="1" parent="1" source="oqv-NDXjtBtArK-2c-zb-24" target="oqv-NDXjtBtArK-2c-zb-23">
          <mxGeometry relative="1" as="geometry" />
        </mxCell>
        <mxCell id="oqv-NDXjtBtArK-2c-zb-50" style="edgeStyle=orthogonalEdgeStyle;rounded=0;orthogonalLoop=1;jettySize=auto;html=1;exitX=0.75;exitY=0.25;exitDx=0;exitDy=0;exitPerimeter=0;" edge="1" parent="1">
          <mxGeometry relative="1" as="geometry">
            <mxPoint x="400" y="290" as="targetPoint" />
            <mxPoint x="300" y="325.25" as="sourcePoint" />
            <Array as="points">
              <mxPoint x="300" y="314.75" />
              <mxPoint x="401" y="314.75" />
            </Array>
          </mxGeometry>
        </mxCell>
        <mxCell id="oqv-NDXjtBtArK-2c-zb-24" value="" style="shape=actor;whiteSpace=wrap;html=1;" vertex="1" parent="1">
          <mxGeometry x="280" y="338" width="40" height="50" as="geometry" />
        </mxCell>
        <mxCell id="oqv-NDXjtBtArK-2c-zb-65" style="edgeStyle=orthogonalEdgeStyle;rounded=0;orthogonalLoop=1;jettySize=auto;html=1;" edge="1" parent="1" source="oqv-NDXjtBtArK-2c-zb-26" target="oqv-NDXjtBtArK-2c-zb-28">
          <mxGeometry relative="1" as="geometry" />
        </mxCell>
        <mxCell id="oqv-NDXjtBtArK-2c-zb-26" value="" style="sketch=0;points=[[0,0,0],[0.25,0,0],[0.5,0,0],[0.75,0,0],[1,0,0],[0,1,0],[0.25,1,0],[0.5,1,0],[0.75,1,0],[1,1,0],[0,0.25,0],[0,0.5,0],[0,0.75,0],[1,0.25,0],[1,0.5,0],[1,0.75,0]];outlineConnect=0;fontColor=#232F3E;fillColor=#E7157B;strokeColor=#ffffff;dashed=0;verticalLabelPosition=bottom;verticalAlign=top;align=center;html=1;fontSize=12;fontStyle=0;aspect=fixed;shape=mxgraph.aws4.resourceIcon;resIcon=mxgraph.aws4.sqs;" vertex="1" parent="1">
          <mxGeometry x="790" y="430" width="35" height="35" as="geometry" />
        </mxCell>
        <mxCell id="oqv-NDXjtBtArK-2c-zb-27" value="" style="sketch=0;outlineConnect=0;fontColor=#232F3E;gradientColor=none;fillColor=#7AA116;strokeColor=none;dashed=0;verticalLabelPosition=bottom;verticalAlign=top;align=center;html=1;fontSize=12;fontStyle=0;aspect=fixed;pointerEvents=1;shape=mxgraph.aws4.bucket;" vertex="1" parent="1">
          <mxGeometry x="780" y="195" width="33.65" height="35" as="geometry" />
        </mxCell>
        <mxCell id="oqv-NDXjtBtArK-2c-zb-66" style="edgeStyle=orthogonalEdgeStyle;rounded=0;orthogonalLoop=1;jettySize=auto;html=1;" edge="1" parent="1" source="oqv-NDXjtBtArK-2c-zb-28" target="oqv-NDXjtBtArK-2c-zb-29">
          <mxGeometry relative="1" as="geometry" />
        </mxCell>
        <mxCell id="oqv-NDXjtBtArK-2c-zb-68" style="edgeStyle=orthogonalEdgeStyle;rounded=0;orthogonalLoop=1;jettySize=auto;html=1;exitX=1;exitY=0;exitDx=0;exitDy=0;exitPerimeter=0;" edge="1" parent="1" source="oqv-NDXjtBtArK-2c-zb-28">
          <mxGeometry relative="1" as="geometry">
            <mxPoint x="1411.60009765625" y="270" as="targetPoint" />
            <Array as="points">
              <mxPoint x="985" y="410" />
              <mxPoint x="1412" y="410" />
            </Array>
          </mxGeometry>
        </mxCell>
        <mxCell id="oqv-NDXjtBtArK-2c-zb-28" value="" style="sketch=0;points=[[0,0,0],[0.25,0,0],[0.5,0,0],[0.75,0,0],[1,0,0],[0,1,0],[0.25,1,0],[0.5,1,0],[0.75,1,0],[1,1,0],[0,0.25,0],[0,0.5,0],[0,0.75,0],[1,0.25,0],[1,0.5,0],[1,0.75,0]];outlineConnect=0;fontColor=#232F3E;fillColor=#ED7100;strokeColor=#ffffff;dashed=0;verticalLabelPosition=bottom;verticalAlign=top;align=center;html=1;fontSize=12;fontStyle=0;aspect=fixed;shape=mxgraph.aws4.resourceIcon;resIcon=mxgraph.aws4.lambda;" vertex="1" parent="1">
          <mxGeometry x="950" y="430" width="35" height="35" as="geometry" />
        </mxCell>
        <mxCell id="oqv-NDXjtBtArK-2c-zb-64" style="edgeStyle=orthogonalEdgeStyle;rounded=0;orthogonalLoop=1;jettySize=auto;html=1;" edge="1" parent="1" source="oqv-NDXjtBtArK-2c-zb-29">
          <mxGeometry relative="1" as="geometry">
            <mxPoint x="301.5999755859375" y="390" as="targetPoint" />
            <Array as="points">
              <mxPoint x="1093" y="560" />
              <mxPoint x="302" y="560" />
            </Array>
          </mxGeometry>
        </mxCell>
        <mxCell id="oqv-NDXjtBtArK-2c-zb-29" value="" style="sketch=0;points=[[0,0,0],[0.25,0,0],[0.5,0,0],[0.75,0,0],[1,0,0],[0,1,0],[0.25,1,0],[0.5,1,0],[0.75,1,0],[1,1,0],[0,0.25,0],[0,0.5,0],[0,0.75,0],[1,0.25,0],[1,0.5,0],[1,0.75,0]];outlineConnect=0;fontColor=#232F3E;fillColor=#E7157B;strokeColor=#ffffff;dashed=0;verticalLabelPosition=bottom;verticalAlign=top;align=center;html=1;fontSize=12;fontStyle=0;aspect=fixed;shape=mxgraph.aws4.resourceIcon;resIcon=mxgraph.aws4.sns;" vertex="1" parent="1">
          <mxGeometry x="1075" y="430" width="35" height="35" as="geometry" />
        </mxCell>
        <mxCell id="oqv-NDXjtBtArK-2c-zb-31" value="" style="outlineConnect=0;dashed=0;verticalLabelPosition=bottom;verticalAlign=top;align=center;html=1;shape=mxgraph.aws3.dynamo_db;fillColor=#2E73B8;gradientColor=none;" vertex="1" parent="1">
          <mxGeometry x="1010" y="280" width="40" height="30" as="geometry" />
        </mxCell>
        <mxCell id="oqv-NDXjtBtArK-2c-zb-32" value="" style="outlineConnect=0;dashed=0;verticalLabelPosition=bottom;verticalAlign=top;align=center;html=1;shape=mxgraph.aws3.dynamo_db;fillColor=#2E73B8;gradientColor=none;" vertex="1" parent="1">
          <mxGeometry x="1075" y="280" width="40" height="30" as="geometry" />
        </mxCell>
        <mxCell id="oqv-NDXjtBtArK-2c-zb-33" value="" style="outlineConnect=0;dashed=0;verticalLabelPosition=bottom;verticalAlign=top;align=center;html=1;shape=mxgraph.aws3.dynamo_db;fillColor=#2E73B8;gradientColor=none;" vertex="1" parent="1">
          <mxGeometry x="1010" y="320" width="40" height="30" as="geometry" />
        </mxCell>
        <mxCell id="oqv-NDXjtBtArK-2c-zb-34" value="Amazon DynamoDB" style="sketch=0;outlineConnect=0;fontColor=#232F3E;gradientColor=none;strokeColor=#ffffff;fillColor=#232F3E;dashed=0;verticalLabelPosition=middle;verticalAlign=bottom;align=center;html=1;whiteSpace=wrap;fontSize=10;fontStyle=1;spacing=3;shape=mxgraph.aws4.productIcon;prIcon=mxgraph.aws4.dynamodb;" vertex="1" parent="1">
          <mxGeometry x="1000" y="195" width="50" height="75" as="geometry" />
        </mxCell>
        <mxCell id="oqv-NDXjtBtArK-2c-zb-37" style="edgeStyle=orthogonalEdgeStyle;rounded=0;orthogonalLoop=1;jettySize=auto;html=1;exitX=1;exitY=0.5;exitDx=0;exitDy=0;entryX=0;entryY=0.5;entryDx=0;entryDy=0;entryPerimeter=0;" edge="1" parent="1" source="oqv-NDXjtBtArK-2c-zb-7" target="oqv-NDXjtBtArK-2c-zb-18">
          <mxGeometry relative="1" as="geometry" />
        </mxCell>
        <mxCell id="oqv-NDXjtBtArK-2c-zb-48" style="edgeStyle=orthogonalEdgeStyle;rounded=0;orthogonalLoop=1;jettySize=auto;html=1;exitX=0.75;exitY=0.25;exitDx=0;exitDy=0;exitPerimeter=0;entryX=0.17;entryY=0.465;entryDx=0;entryDy=0;entryPerimeter=0;" edge="1" parent="1" source="oqv-NDXjtBtArK-2c-zb-24" target="oqv-NDXjtBtArK-2c-zb-22">
          <mxGeometry relative="1" as="geometry" />
        </mxCell>
        <mxCell id="oqv-NDXjtBtArK-2c-zb-51" style="edgeStyle=orthogonalEdgeStyle;rounded=0;orthogonalLoop=1;jettySize=auto;html=1;exitX=0.5;exitY=0;exitDx=0;exitDy=0;entryX=0.008;entryY=0.194;entryDx=0;entryDy=0;entryPerimeter=0;" edge="1" parent="1" source="oqv-NDXjtBtArK-2c-zb-1" target="oqv-NDXjtBtArK-2c-zb-2">
          <mxGeometry relative="1" as="geometry" />
        </mxCell>
        <mxCell id="oqv-NDXjtBtArK-2c-zb-55" value="" style="sketch=0;outlineConnect=0;fontColor=#232F3E;gradientColor=none;fillColor=#7AA116;strokeColor=none;dashed=0;verticalLabelPosition=bottom;verticalAlign=top;align=center;html=1;fontSize=12;fontStyle=0;aspect=fixed;pointerEvents=1;shape=mxgraph.aws4.virtual_tape_library;" vertex="1" parent="1">
          <mxGeometry x="1420" y="256" width="34.97" height="44" as="geometry" />
        </mxCell>
        <mxCell id="oqv-NDXjtBtArK-2c-zb-63" style="edgeStyle=orthogonalEdgeStyle;rounded=0;orthogonalLoop=1;jettySize=auto;html=1;entryX=0.5;entryY=1;entryDx=0;entryDy=0;entryPerimeter=0;" edge="1" parent="1" source="oqv-NDXjtBtArK-2c-zb-22" target="oqv-NDXjtBtArK-2c-zb-26">
          <mxGeometry relative="1" as="geometry" />
        </mxCell>
        <mxCell id="oqv-NDXjtBtArK-2c-zb-67" style="edgeStyle=orthogonalEdgeStyle;rounded=0;orthogonalLoop=1;jettySize=auto;html=1;entryX=0.709;entryY=0.971;entryDx=0;entryDy=0;entryPerimeter=0;" edge="1" parent="1" source="oqv-NDXjtBtArK-2c-zb-28" target="oqv-NDXjtBtArK-2c-zb-6">
          <mxGeometry relative="1" as="geometry">
            <Array as="points">
              <mxPoint x="968" y="326" />
            </Array>
          </mxGeometry>
        </mxCell>
        <mxCell id="oqv-NDXjtBtArK-2c-zb-69" style="edgeStyle=orthogonalEdgeStyle;rounded=0;orthogonalLoop=1;jettySize=auto;html=1;entryX=-0.005;entryY=0.182;entryDx=0;entryDy=0;entryPerimeter=0;" edge="1" parent="1" source="oqv-NDXjtBtArK-2c-zb-55" target="oqv-NDXjtBtArK-2c-zb-6">
          <mxGeometry relative="1" as="geometry" />
        </mxCell>
      </root>
    </mxGraphModel>
  </diagram>
</mxfile>
